<svg xmlns:xlink="http://www.w3.org/1999/xlink" xmlns="http://www.w3.org/2000/svg" width="66.80411px" height="75.1546px" viewBox="0 0 66.80411 75.1546" version="1.1">
  <defs>
    <path d="M7.999 25.0515L58.8051 25.0515Q59.0015 25.0515 59.1976 25.0611Q59.3937 25.0708 59.5892 25.09Q59.7846 25.1093 59.9788 25.1381Q60.173 25.1669 60.3656 25.2052Q60.5582 25.2435 60.7487 25.2912Q60.9392 25.3389 61.1271 25.3959Q61.315 25.4529 61.4999 25.5191Q61.6848 25.5853 61.8662 25.6604Q62.0476 25.7355 62.2251 25.8195Q62.4026 25.9035 62.5758 25.996Q62.749 26.0886 62.9174 26.1895Q63.0858 26.2905 63.2491 26.3996Q63.4124 26.5087 63.5701 26.6257Q63.7278 26.7426 63.8796 26.8672Q64.0314 26.9918 64.1769 27.1236Q64.3224 27.2555 64.4613 27.3944Q64.6001 27.5332 64.732 27.6787Q64.8638 27.8242 64.9884 27.976Q65.113 28.1278 65.23 28.2855Q65.3469 28.4432 65.456 28.6065Q65.5651 28.7698 65.6661 28.9382Q65.767 29.1066 65.8596 29.2798Q65.9522 29.453 66.0361 29.6305Q66.1201 29.808 66.1952 29.9894Q66.2704 30.1708 66.3365 30.3557Q66.4027 30.5406 66.4597 30.7285Q66.5167 30.9164 66.5644 31.1069Q66.6121 31.2974 66.6504 31.49Q66.6887 31.6826 66.7175 31.8768Q66.7463 32.0711 66.7656 32.2665Q66.7848 32.4619 66.7945 32.658Q66.8041 32.8541 66.8041 33.0505L66.8041 67.1556Q66.8041 67.352 66.7945 67.5481Q66.7849 67.7442 66.7656 67.9397Q66.7464 68.1351 66.7175 68.3293Q66.6887 68.5235 66.6504 68.7161Q66.6121 68.9087 66.5644 69.0992Q66.5167 69.2897 66.4597 69.4776Q66.4027 69.6655 66.3365 69.8504Q66.2704 70.0353 66.1952 70.2167Q66.1201 70.3981 66.0361 70.5756Q65.9522 70.7531 65.8596 70.9263Q65.767 71.0995 65.6661 71.2679Q65.5651 71.4363 65.456 71.5996Q65.3469 71.7629 65.23 71.9206Q65.113 72.0783 64.9884 72.2301Q64.8638 72.3819 64.732 72.5274Q64.6001 72.6729 64.4613 72.8117Q64.3224 72.9506 64.1769 73.0825Q64.0314 73.2143 63.8796 73.3389Q63.7278 73.4635 63.5701 73.5805Q63.4124 73.6974 63.2491 73.8065Q63.0858 73.9156 62.9174 74.0166Q62.749 74.1175 62.5758 74.2101Q62.4026 74.3027 62.2251 74.3866Q62.0476 74.4706 61.8662 74.5457Q61.6848 74.6208 61.4999 74.687Q61.315 74.7532 61.1271 74.8102Q60.9392 74.8672 60.7487 74.9149Q60.5582 74.9626 60.3656 75.0009Q60.173 75.0392 59.9788 75.068Q59.7846 75.0968 59.5892 75.1161Q59.3937 75.1353 59.1976 75.145Q59.0015 75.1546 58.8051 75.1546L7.999 75.1546Q7.80264 75.1546 7.60651 75.145Q7.41038 75.1353 7.21496 75.1161Q7.01954 75.0968 6.8253 75.068Q6.63106 75.0392 6.43847 75.0009Q6.24588 74.9626 6.0554 74.9149Q5.86492 74.8672 5.67701 74.8102Q5.4891 74.7532 5.30422 74.687Q5.11933 74.6208 4.93791 74.5457Q4.7565 74.4706 4.57899 74.3866Q4.40148 74.3027 4.2283 74.2101Q4.05512 74.1175 3.88669 74.0166Q3.71826 73.9156 3.55499 73.8065Q3.39172 73.6974 3.234 73.5805Q3.07628 73.4635 2.92449 73.3389Q2.7727 73.2143 2.6272 73.0825Q2.4817 72.9506 2.34285 72.8117Q2.204 72.6729 2.07213 72.5274Q1.94026 72.3819 1.81569 72.2301Q1.69112 72.0783 1.57414 71.9206Q1.45717 71.7629 1.34807 71.5996Q1.23898 71.4363 1.13803 71.2679Q1.03708 71.0995 0.944512 70.9263Q0.851946 70.7531 0.76799 70.5756Q0.684033 70.3981 0.608888 70.2167Q0.533742 70.0353 0.467589 69.8504Q0.401436 69.6655 0.344434 69.4776Q0.287433 69.2897 0.23972 69.0992Q0.192007 68.9087 0.153699 68.7161Q0.11539 68.5235 0.0865771 68.3293Q0.0577644 68.1351 0.0385174 67.9397Q0.0192703 67.7442 0.00963514 67.5481Q0 67.352 0 67.1556L0 33.0505Q0 32.8541 0.00963514 32.658Q0.0192703 32.4619 0.0385174 32.2665Q0.0577644 32.0711 0.0865771 31.8768Q0.11539 31.6826 0.153699 31.49Q0.192007 31.2974 0.23972 31.1069Q0.287433 30.9164 0.344434 30.7285Q0.401436 30.5406 0.467589 30.3557Q0.533742 30.1708 0.608888 29.9894Q0.684033 29.808 0.76799 29.6305Q0.851946 29.453 0.944512 29.2798Q1.03708 29.1066 1.13803 28.9382Q1.23898 28.7698 1.34807 28.6065Q1.45717 28.4432 1.57414 28.2855Q1.69112 28.1278 1.81569 27.976Q1.94026 27.8242 2.07213 27.6787Q2.204 27.5332 2.34285 27.3944Q2.4817 27.2555 2.6272 27.1236Q2.7727 26.9918 2.92449 26.8672Q3.07628 26.7426 3.234 26.6257Q3.39172 26.5087 3.55499 26.3996Q3.71826 26.2905 3.88669 26.1895Q4.05512 26.0886 4.2283 25.996Q4.40148 25.9035 4.57899 25.8195Q4.7565 25.7355 4.93791 25.6604Q5.11933 25.5853 5.30422 25.5191Q5.4891 25.4529 5.67701 25.3959Q5.86492 25.3389 6.0554 25.2912Q6.24588 25.2435 6.43847 25.2052Q6.63106 25.1669 6.8253 25.1381Q7.01954 25.1093 7.21496 25.09Q7.41038 25.0708 7.60651 25.0611Q7.80264 25.0515 7.999 25.0515Z" id="path_1"/>
    <path d="M26.4433 6.95876C26.4433 3.11554 29.5588 0 33.4021 0C37.2453 0 40.3608 3.11554 40.3608 6.95876C40.3608 10.802 37.2453 13.9175 33.4021 13.9175C29.5588 13.9175 26.4433 10.802 26.4433 6.95876Z" id="path_2"/>
    <path d="M9.56602 30.6185L57.2381 30.6185Q57.4346 30.6185 57.6301 30.6378Q57.8256 30.657 58.0183 30.6954Q58.211 30.7337 58.399 30.7907Q58.587 30.8478 58.7685 30.9229Q58.95 30.9981 59.1232 31.0907Q59.2965 31.1833 59.4598 31.2925Q59.6232 31.4016 59.7751 31.5263Q59.9269 31.6509 60.0658 31.7898Q60.2048 31.9287 60.3294 32.0806Q60.454 32.2325 60.5632 32.3958Q60.6723 32.5592 60.7649 32.7324Q60.8575 32.9057 60.9327 33.0872Q61.0079 33.2687 61.0649 33.4567Q61.1219 33.6447 61.1603 33.8374Q61.1986 34.0301 61.2179 34.2256Q61.2371 34.4211 61.2371 34.6175L61.2371 48.8876Q61.2371 49.084 61.2179 49.2795Q61.1986 49.4751 61.1603 49.6677Q61.1219 49.8604 61.0649 50.0484Q61.0079 50.2364 60.9327 50.4179Q60.8575 50.5994 60.7649 50.7727Q60.6723 50.9459 60.5632 51.1093Q60.454 51.2726 60.3294 51.4245Q60.2048 51.5764 60.0658 51.7153Q59.9269 51.8542 59.7751 51.9788Q59.6232 52.1035 59.4598 52.2126Q59.2965 52.3218 59.1232 52.4144Q58.95 52.507 58.7685 52.5822Q58.587 52.6573 58.399 52.7144Q58.211 52.7714 58.0183 52.8097Q57.8256 52.8481 57.6301 52.8673Q57.4346 52.8866 57.2381 52.8866L9.56602 52.8866Q9.36956 52.8866 9.17405 52.8673Q8.97853 52.8481 8.78585 52.8097Q8.59317 52.7714 8.40517 52.7144Q8.21717 52.6573 8.03567 52.5822Q7.85416 52.507 7.6809 52.4144Q7.50764 52.3218 7.34429 52.2126Q7.18094 52.1035 7.02908 51.9788Q6.87721 51.8542 6.7383 51.7153Q6.59938 51.5764 6.47475 51.4245Q6.35012 51.2726 6.24097 51.1093Q6.13182 50.9459 6.03921 50.7727Q5.9466 50.5994 5.87142 50.4179Q5.79624 50.2364 5.73921 50.0484Q5.68218 49.8604 5.64386 49.6677Q5.60553 49.4751 5.58627 49.2795Q5.56702 49.084 5.56702 48.8876L5.56702 34.6175Q5.56702 34.4211 5.58627 34.2256Q5.60553 34.0301 5.64386 33.8374Q5.68218 33.6447 5.73921 33.4567Q5.79624 33.2687 5.87142 33.0872Q5.9466 32.9057 6.03921 32.7324Q6.13182 32.5592 6.24097 32.3958Q6.35012 32.2325 6.47475 32.0806Q6.59938 31.9287 6.7383 31.7898Q6.87721 31.6509 7.02908 31.5263Q7.18094 31.4016 7.34429 31.2925Q7.50764 31.1833 7.6809 31.0907Q7.85416 30.9981 8.03567 30.9229Q8.21717 30.8478 8.40517 30.7907Q8.59317 30.7337 8.78585 30.6954Q8.97853 30.657 9.17405 30.6378Q9.36956 30.6185 9.56602 30.6185Z" id="path_3"/>
    <path d="M33.402 13.9175L33.402 25.0515" id="path_4"/>
    <clipPath id="clip_1">
      <use xlink:href="#path_1"/>
    </clipPath>
    <clipPath id="clip_2">
      <use xlink:href="#path_2"/>
    </clipPath>
    <clipPath id="clip_3">
      <use xlink:href="#path_3"/>
    </clipPath>
    <clipPath id="clip_4">
      <use xlink:href="#path_4"/>
    </clipPath>
  </defs>
  <g id="Grup-2">
    <g id="Dikdörtgen-18">
      <g clip-path="url(#clip_1)">
        <use xlink:href="#path_1" fill="none" stroke="#7B268E" stroke-width="6"/>
      </g>
    </g>
    <g id="Oval-3">
      <g clip-path="url(#clip_2)">
        <use xlink:href="#path_2" fill="none" stroke="#7B268E" stroke-width="6"/>
      </g>
    </g>
    <g id="Dikdörtgen-19">
      <g clip-path="url(#clip_3)">
        <use xlink:href="#path_3" fill="none" stroke="#7B268E" stroke-width="6"/>
      </g>
    </g>
    <g id="Grup" transform="translate(16.70102 55.670166)">
      <path d="M0 4.17526C0 1.86933 1.86933 0 4.17526 0C6.48119 0 8.35052 1.86933 8.35052 4.17526C8.35052 6.48119 6.48119 8.35052 4.17526 8.35052C1.86933 8.35052 0 6.48119 0 4.17526Z" id="Oval" fill="#7B268E" fill-rule="evenodd" stroke="none"/>
      <path d="M25.0515 4.17526C25.0515 1.86933 26.9209 0 29.2268 0C31.5327 0 33.4021 1.86933 33.4021 4.17526C33.4021 6.48119 31.5327 8.35052 29.2268 8.35052C26.9209 8.35052 25.0515 6.48119 25.0515 4.17526Z" id="Oval-2" fill="#7B268E" fill-rule="evenodd" stroke="none"/>
    </g>
    <path d="M29.2553 64.1671C29.1014 64.6024 29.2552 63.6792 29.2552 64.1671C29.2552 66.4731 31.1246 68.3424 33.4305 68.3424C35.7365 68.3424 37.6058 66.4731 37.6058 64.1672C37.6058 64.1672 37.6058 64.1671 37.6058 64.1671C37.6058 64.1671 37.6058 64.1671 37.6058 64.1671C37.6058 64.1671 37.6058 64.1671 37.6058 64.1671C37.6058 63.6793 37.6319 64.6391 37.6058 64.1672C37.6058 64.1672 29.2552 64.1671 29.2552 64.1671L29.2553 64.1671Z" id="Vektör" fill="#7B268E" fill-rule="evenodd" stroke="none"/>
    <g id="Çizgi">
      <g clip-path="url(#clip_4)">
        <use xlink:href="#path_4" fill="none" stroke="#7B268E" stroke-width="40" stroke-linecap="square"/>
      </g>
    </g>
    <path d="M33.0928 13.9237L33.0928 25.0237" id="Çizgi-4" fill="none" fill-rule="evenodd" stroke="#7B268E" stroke-width="3" stroke-linecap="square"/>
  </g>
</svg>